<svg xmlns="http://www.w3.org/2000/svg" width="14" height="8" viewBox="0 0 14 8" fill="none">
<path d="M12.6551 0.14282C12.7208 0.0765709 12.8103 0.0393066 12.9036 0.0393066C12.9969 0.0393066 13.0864 0.0765709 13.1521 0.14282L13.894 0.884708C13.9616 0.948211 14 1.03687 14 1.12967C14 1.22247 13.9616 1.31113 13.894 1.37463L7.46193 7.80666C7.36358 7.90513 7.23016 7.96051 7.09099 7.96063L6.90901 7.96063C6.76984 7.96051 6.63642 7.90513 6.53807 7.80666L0.106047 1.37463C0.0383834 1.31113 9.01957e-07 1.22247 9.06013e-07 1.12967C9.10069e-07 1.03687 0.0383834 0.948211 0.106047 0.884707L0.847934 0.14282C0.913642 0.0765704 1.00309 0.0393061 1.0964 0.0393061C1.18971 0.0393061 1.27915 0.0765704 1.34486 0.14282L7 5.79796L12.6551 0.14282Z" fill="black"/>
</svg>